<mxfile host="65bd71144e">
    <diagram name="Page-1" id="SRbtJGXbbrof5EBFA-Zn">
        <mxGraphModel dx="828" dy="648" grid="1" gridSize="10" guides="1" tooltips="1" connect="1" arrows="1" fold="1" page="1" pageScale="1" pageWidth="850" pageHeight="1100" math="0" shadow="0">
            <root>
                <mxCell id="0"/>
                <mxCell id="1" parent="0"/>
                <mxCell id="zD-NKAqnjIdykChrrDzF-16" style="edgeStyle=orthogonalEdgeStyle;rounded=0;orthogonalLoop=1;jettySize=auto;html=1;entryX=0.5;entryY=1;entryDx=0;entryDy=0;" parent="1" source="zD-NKAqnjIdykChrrDzF-1" target="zD-NKAqnjIdykChrrDzF-10" edge="1">
                    <mxGeometry relative="1" as="geometry"/>
                </mxCell>
                <mxCell id="zD-NKAqnjIdykChrrDzF-17" style="edgeStyle=orthogonalEdgeStyle;rounded=0;orthogonalLoop=1;jettySize=auto;html=1;" parent="1" source="zD-NKAqnjIdykChrrDzF-1" target="zD-NKAqnjIdykChrrDzF-9" edge="1">
                    <mxGeometry relative="1" as="geometry"/>
                </mxCell>
                <mxCell id="zD-NKAqnjIdykChrrDzF-19" style="edgeStyle=orthogonalEdgeStyle;rounded=0;orthogonalLoop=1;jettySize=auto;html=1;entryX=0.5;entryY=0;entryDx=0;entryDy=0;" parent="1" source="zD-NKAqnjIdykChrrDzF-1" target="zD-NKAqnjIdykChrrDzF-11" edge="1">
                    <mxGeometry relative="1" as="geometry"/>
                </mxCell>
                <mxCell id="zD-NKAqnjIdykChrrDzF-1" value="Гость" style="shape=umlActor;verticalLabelPosition=bottom;verticalAlign=top;html=1;outlineConnect=0;" parent="1" vertex="1">
                    <mxGeometry x="390" y="150" width="30" height="60" as="geometry"/>
                </mxCell>
                <mxCell id="zD-NKAqnjIdykChrrDzF-20" style="edgeStyle=orthogonalEdgeStyle;rounded=0;orthogonalLoop=1;jettySize=auto;html=1;exitX=0.5;exitY=0;exitDx=0;exitDy=0;exitPerimeter=0;entryX=0.5;entryY=1;entryDx=0;entryDy=0;" parent="1" source="zD-NKAqnjIdykChrrDzF-7" target="zD-NKAqnjIdykChrrDzF-11" edge="1">
                    <mxGeometry relative="1" as="geometry"/>
                </mxCell>
                <mxCell id="zD-NKAqnjIdykChrrDzF-22" style="edgeStyle=orthogonalEdgeStyle;rounded=0;orthogonalLoop=1;jettySize=auto;html=1;" parent="1" source="zD-NKAqnjIdykChrrDzF-7" target="zD-NKAqnjIdykChrrDzF-21" edge="1">
                    <mxGeometry relative="1" as="geometry"/>
                </mxCell>
                <mxCell id="zD-NKAqnjIdykChrrDzF-25" style="edgeStyle=orthogonalEdgeStyle;rounded=0;orthogonalLoop=1;jettySize=auto;html=1;entryX=1;entryY=1;entryDx=0;entryDy=0;" parent="1" source="zD-NKAqnjIdykChrrDzF-7" target="zD-NKAqnjIdykChrrDzF-23" edge="1">
                    <mxGeometry relative="1" as="geometry">
                        <Array as="points">
                            <mxPoint x="560" y="400"/>
                            <mxPoint x="467" y="400"/>
                        </Array>
                    </mxGeometry>
                </mxCell>
                <mxCell id="zD-NKAqnjIdykChrrDzF-30" style="edgeStyle=orthogonalEdgeStyle;rounded=0;orthogonalLoop=1;jettySize=auto;html=1;entryX=0;entryY=0.5;entryDx=0;entryDy=0;" parent="1" source="zD-NKAqnjIdykChrrDzF-7" target="zD-NKAqnjIdykChrrDzF-28" edge="1">
                    <mxGeometry relative="1" as="geometry"/>
                </mxCell>
                <mxCell id="zD-NKAqnjIdykChrrDzF-7" value="Пользователь" style="shape=umlActor;verticalLabelPosition=bottom;verticalAlign=top;html=1;outlineConnect=0;" parent="1" vertex="1">
                    <mxGeometry x="545" y="420" width="30" height="60" as="geometry"/>
                </mxCell>
                <mxCell id="zD-NKAqnjIdykChrrDzF-9" value="Регистрация" style="ellipse;whiteSpace=wrap;html=1;" parent="1" vertex="1">
                    <mxGeometry x="345" width="120" height="80" as="geometry"/>
                </mxCell>
                <mxCell id="zD-NKAqnjIdykChrrDzF-10" value="Авторизация" style="ellipse;whiteSpace=wrap;html=1;" parent="1" vertex="1">
                    <mxGeometry x="210" y="40" width="120" height="80" as="geometry"/>
                </mxCell>
                <mxCell id="zD-NKAqnjIdykChrrDzF-11" value="Просмотр объявлений" style="ellipse;whiteSpace=wrap;html=1;" parent="1" vertex="1">
                    <mxGeometry x="500" y="260" width="120" height="80" as="geometry"/>
                </mxCell>
                <mxCell id="zD-NKAqnjIdykChrrDzF-21" value="Выложить объявление" style="ellipse;whiteSpace=wrap;html=1;" parent="1" vertex="1">
                    <mxGeometry x="345" y="410" width="120" height="80" as="geometry"/>
                </mxCell>
                <mxCell id="zD-NKAqnjIdykChrrDzF-23" value="Вступить в обсуждение объявления" style="ellipse;whiteSpace=wrap;html=1;" parent="1" vertex="1">
                    <mxGeometry x="365" y="290" width="120" height="80" as="geometry"/>
                </mxCell>
                <mxCell id="zD-NKAqnjIdykChrrDzF-28" value="Фиксировать выполнение объявления" style="ellipse;whiteSpace=wrap;html=1;" parent="1" vertex="1">
                    <mxGeometry x="650" y="410" width="120" height="80" as="geometry"/>
                </mxCell>
            </root>
        </mxGraphModel>
    </diagram>
</mxfile>